# xmcd
#
# Track frame offsets:
#	150
#	18156
#	36712
#	51255
#	68211
#	89098
#	116691
#	141169
#	155533
#	181528
#	208372
#
# Disc length: 2997 seconds
# Revision: 0
# Processed by: cddbd v1.5.2PL0 Copyright (c) Steve Scherf et al.
# Submitted via: dBpowerAMP V12.0
#
DISCID=a20bb30b
DTITLE=Ry Cooder - The Prodigal Son
DYEAR=2018
DGENRE=Country Gospel
TTITLE0=Straight Street
TTITLE1=Shrinking Man
TTITLE2=Gentrification
TTITLE3=Everybody Ought to Treat a Stranger Right
TTITLE4=The Prodigal Son
TTITLE5=Nobody's Fault But Mine
TTITLE6=You Must Unload
TTITLE7=I'll Be Rested When the Roll Is Called
TTITLE8=Harbor of Love
TTITLE9=Jesus and Woody
TTITLE10=In His Care
EXTD=
EXTT0=
EXTT1=
EXTT2=
EXTT3=
EXTT4=
EXTT5=
EXTT6=
EXTT7=
EXTT8=
EXTT9=
EXTT10=
PLAYORDER=
